<?xml version="1.0" encoding="utf-8"?>
<!-- Generator: Adobe Illustrator 23.0.3, SVG Export Plug-In . SVG Version: 6.00 Build 0)  -->
<svg version="1.1" xmlns="http://www.w3.org/2000/svg" xmlns:xlink="http://www.w3.org/1999/xlink" x="0px" y="0px"
	 viewBox="0 0 200 200" style="enable-background:new 0 0 200 200;" xml:space="preserve">
<style type="text/css">
	.st0{display:none;}
	.st1{display:inline;}
	.st2{fill:#F58220;}
	.st3{fill:#040305;}
	.st4{fill:#1A1A1A;}
	.st5{fill:#1D1D1D;}
	.st6{fill:#222222;}
	.st7{fill:#010101;}
	.st8{fill:#ED2024;}
	.st9{display:none;fill:#6ABD45;}
</style>
<g id="Layer_1" class="st0">
	<g class="st1">
		<path class="st2" d="M197.6,101.3c-2.2,0-4.4,0-6.7,0c0-0.7,0-1.3,0-2c-0.2-21.6-7.3-40.7-21.3-57.1c-13-15.3-29.5-25.1-49.1-29.5
			c-8.1-1.8-16.3-2.4-24.6-1.9c-17.9,1.1-34,6.9-48.3,17.7C29.9,41.8,18.6,59.4,13.7,81.1c-1.7,7.6-2.3,15.3-1.9,23.1
			c1.1,20,8.1,37.7,21.2,53c12.3,14.4,27.6,23.9,45.9,28.7c9,2.4,18.3,3.2,27.6,2.7c12.9-0.8,25.1-4.2,36.6-10.2
			c0.2-0.1,0.4-0.2,0.6-0.3c0,0,0.1-0.1,0.1-0.2c-1.6-0.2-3.2-0.4-4.8-0.7c-5.4-1.1-10.3-3.3-15-6.1c-7.5-4.3-14.3-9.5-20.9-15.1
			c-9.2-7.8-18.1-16-26.5-24.7c-10-10.4-19.2-21.5-27-33.8c-3.1-5-5.9-10.2-8.3-15.5c-2.6-5.8-3-11.8-1.3-17.9
			c1-3.6,2.3-7.1,3.6-10.7c1-2.6,3.3-3.7,6.4-3.4c2.9,0.3,5.7,1.3,8.3,2.5c7.1,3.2,13.8,7,19.5,12.4c2.4,2.3,4.5,4.9,5.5,8.2
			c0.4,1.4,0.4,2.8,0,4.2c-1.8,6.2-0.5,11.9,2.6,17.4c2.6,4.5,5.9,8.4,9.6,12c5.9,5.8,11.9,11.6,18,17.3c3.8,3.5,8.1,6.5,13,8.5
			c1.9,0.8,3.8,1.4,5.9,1.2c0.6,0,1.2-0.3,1.6-0.7c3.3-3.5,7.1-4,11.1-1.4c5.3,3.5,9.7,8,13.4,13.1c4.3,5.8,7.9,12.1,10.3,19
			c0.2,0.6,0.4,1.2,0.5,1.9c0.4,2.7-0.6,4.9-3.4,5.8c-2,0.7-3.6,1.9-5.2,3.2c-12.3,9.7-26.2,16.1-41.6,19c-4.7,0.9-9.4,1.5-14.2,1.6
			c-0.4,0-0.7,0.1-1.1,0.2c-1.7,0-3.4,0-5.1,0c-0.3-0.1-0.6-0.1-0.9-0.2c-3.2-0.3-6.4-0.4-9.6-0.8c-7.7-0.9-15.1-2.8-22.3-5.8
			c-25.2-10.3-43.2-27.9-53.8-52.9c-3.8-8.9-6-18.3-6.8-28c-0.1-1.3-0.2-2.7-0.4-4c0-2.8,0-5.5,0-8.3c0.1-0.4,0.2-0.8,0.2-1.2
			c0.3-6.3,1.2-12.4,2.9-18.5c5.9-22.1,18.2-40,36.7-53.5c14.5-10.6,30.9-16.5,48.8-18c1.5-0.1,3.1-0.2,4.6-0.4c2.1,0,4.2,0,6.3,0
			c0.4,0.1,0.8,0.1,1.2,0.2c6.4,0.2,12.7,1,18.8,2.7c31.1,8.3,53.2,27.2,66,56.7c3.9,9,6,18.4,6.8,28.1c0.1,1.3,0.2,2.6,0.4,3.9
			C197.6,97.5,197.6,99.4,197.6,101.3z"/>
		<path class="st2" d="M173.1,163.4c-0.4-4.4-1.6-8.5-3.5-12.4c-3.5-7.4-8.7-13.4-15-18.5c-2.4-2-5-3.7-7.5-5.7
			c0.3-0.3,0.6-0.6,1-0.9c2.3-1.6,4.6-3.3,7-4.8c3.2-2.1,6.5-2,9.9-0.4c2.6,1.2,4.9,2.8,6.9,4.8c4.4,4.3,8.1,9.2,10.8,14.7
			c3.3,6.9,2.1,13.3-3.4,18.7C177.5,160.7,175.4,162.2,173.1,163.4z"/>
		<path class="st2" d="M52.2,45.4c2.5-3.8,4.9-7.3,8.5-10c2-1.5,4.4-1.4,6.7-1.2c4.4,0.4,8.3,2.4,12,4.8c4.4,2.9,8.6,6,12.2,9.9
			c3.5,3.8,4.2,8,2.5,12.7c-1.4,3.9-3.5,7.4-6,10.8c-0.1,0.1-0.2,0.1-0.3,0.2c-1.3-3.2-3-6.1-5.2-8.8c-4.5-5.6-10.1-9.8-16.5-13.1
			C61.8,48.4,57.1,46.7,52.2,45.4z"/>
	</g>
</g>
<g id="Layer_2" class="st0">
	<g id="Layer_45" class="st1">
		<g>
			<path d="M162.6,16.5c0,13.4,0,27,0,40.5c0,2.2-0.6,2.9-2.9,3c-2.9,0.1-3-1.3-3-3.5c0.1-10.6,0-21.3,0-32.6
				c-13,4.9-25.4,9.6-37.8,14.1c-2.1,0.8-2.3,2.1-2.3,4c0.1,4,0,8,0,12c0,1.8,0,3.3-2.6,3.3c-2.6,0-3.4-1-3.2-3.3c0-0.2,0-0.4,0-0.6
				c-0.5-4.8,2.1-10.8-1.2-14.3c-2.9-3.1-8.5-3.8-12.9-5.5c-8.5-3.2-17-6.3-26-9.7c0,8.4,0,16.2,0,24c0,28.5,0.1,56.9-0.1,85.4
				c0,3.3,0.7,5.2,4.1,6.2c4.7,1.4,9.2,3.5,13.9,5.2c1.9,0.7,3.5,1.1,2.4,3.9c-1.1,2.8-2.7,2.6-4.8,1.7c-0.2-0.1-0.4-0.1-0.5-0.2
				c-12.6-7.6-24.8-6-37.5,0.2c-9.1,4.5-19,7.4-29.1,11.2c0-13.9,0-27.1,0-40.2c0-27.3,0.1-54.6-0.1-81.9c0-3.3,0.9-4.8,4.1-6.1
				c14.1-5.8,29.1-9.6,42.7-16.9c0.8-0.4,0.5-0.9,5.3,1.6c1.9,1,2.8,1.1,4.2,1.7c11,4.1,22.1,8,33.1,12.4c3.8,1.5,7,1.3,10.8-0.1
				c12.9-5,26-9.7,39-14.6C159.7,16.8,160.9,16,162.6,16.5z M25.1,153.1c12.4-4.6,23.9-9,35.6-13c3.8-1.3,4.6-3.2,4.6-7
				c-0.2-34.6-0.1-69.2-0.1-103.7c0-1.6-0.1-3.8-0.4-5.8c-12.3,4.6-24.8,10-37,14.5c-2.3,0.9-2.6,2.2-2.6,4.3
				C25.1,79.1,25.1,115.8,25.1,153.1z"/>
			<path d="M137.4,65.6c33,0,55.8,30.7,45.6,61c-7.5,22.5-20.2,42.1-36.2,59.6c-6.9,7.6-9.9,7.6-16.9,0.2
				c-16.9-18-29.9-38.5-37.1-62.2c-7.6-24.8,8.7-51.6,34.2-57.5C130.7,66,134.5,65.3,137.4,65.6z M138.1,71.4
				c-27,0.1-47.4,26.4-39.4,51.9c7.1,22.9,20.8,42.2,36.5,60.1c2.8,3.2,4.8,1.7,6.8-0.7c15.4-17.4,28.5-36.3,35.5-58.7
				C185.7,97.8,165.6,71.3,138.1,71.4z"/>
			<path d="M138.3,82.8c16.8,0,30.1,13.2,30.1,30c0,16.8-13.2,30.3-29.9,30.5c-16.3,0.2-30.4-13.6-30.6-30
				C107.6,96.6,121.3,82.8,138.3,82.8z M138.5,136.9c13.3-0.1,24.1-10.8,24.1-24c0-13.2-11.4-24.5-24.5-24.4
				c-13.5,0.2-24,11.1-23.8,24.8C114.4,126.8,124.9,137,138.5,136.9z"/>
		</g>
	</g>
</g>
<g id="Layer_4" class="st0">
	<g class="st1">
		<g>
			<path class="st3" d="M100.1,5C48.2,5,6,47.2,6,99.1c0,51.9,42.2,94.1,94.1,94.1c51.9,0,94.1-42.2,94.1-94.1
				C194.2,47.2,152,5,100.1,5z M100.1,175.8c-42.3,0-76.7-34.4-76.7-76.6c0-42.3,34.4-76.7,76.7-76.7s76.7,34.4,76.7,76.7
				C176.8,141.4,142.4,175.8,100.1,175.8z"/>
			<path class="st3" d="M143.3,91.1h-35.2V55.9c0-4.4-3.6-8-8-8s-8,3.6-8,8v35.2H56.9c-4.4,0-8,3.6-8,8c0,4.4,3.6,8,8,8h35.2v35.2
				c0,4.4,3.6,8,8,8c4.4,0,8-3.6,8-8v-35.2h35.2c4.4,0,8-3.6,8-8C151.3,94.7,147.7,91.1,143.3,91.1z"/>
		</g>
	</g>
</g>
<g id="Layer_5" class="st0">
	<g id="Layer_34" class="st1">
		<g>
			<path d="M184.1,54.5c-0.4,1.1-0.3,2.3-0.5,3.5c-1.2,8.3-4,16-9.5,22.5c-3.8,4.6-8.5,7.9-14.4,9.2c-1.2,0.3-2.4,0.4-3.7,0.5
				c-0.5,0-0.7,0.2-0.8,0.8c-0.1,3.8-0.2,7.6-0.3,11.5c-0.1,2.8-1.2,5.3-2.2,7.8c-1,2.6-3,4.5-4.9,6.4c-8.4,8.8-17,17.3-25.5,25.9
				c-11.9,12-23.9,23.9-35.8,35.9c-1.3,1.4-2.8,2.4-4.5,3.2c-2.4,1.1-4.9,2-7.5,2.2c-0.1,0-0.1,0.1-0.2,0.1c-1.5,0-2.9,0-4.4,0
				c-1.2-0.3-2.4-0.6-3.6-0.9c-3.4-1-6.2-2.9-8.7-5.3c-10.9-10.5-21.6-21.3-32.3-32.1c-3.2-3.3-6.5-6.5-9.5-9.9
				c-2.6-2.9-3.9-6.4-4.4-10.2c-0.7-5.3,0.9-10.1,3.3-14.7c0.1-0.3,0.4-0.5,0.6-0.7c19.8-19.7,39.4-39.5,59.3-59
				c2.7-2.7,5.4-5.4,8.5-7.6c2.9-2.1,6.2-3.4,9.9-3.4c11.1,0,22.3-0.1,33.4-0.2c1.4,0,1.4,0,1.7-1.4c1.2-5.3,3.2-10.3,6.3-14.8
				c3.1-4.5,6.8-8.4,11.8-10.7c8.5-3.9,16.5-2.5,23.7,3.3c6.8,5.5,10.6,12.8,12.8,21.2c0.8,2.9,1.3,5.9,1.4,8.9c0,0.1,0,0.3,0.2,0.4
				C184.1,49.4,184.1,52,184.1,54.5z M148.1,78c0,0,0.1,0,0.1,0c0-6.6-0.1-13.1,0-19.7c0-2.2-0.5-4.1-1.6-6c-1.2-2-2.8-3.5-5-4.4
				c-2.4-1-4.9-1-7.3-1.2c-0.5,0-0.5,0.3-0.5,0.6c-0.2,2-0.3,3.9-0.4,5.9c-0.1,1.2,0.3,1.8,1.4,2.3c4.1,2,6.5,6.6,5.8,11
				c-0.9,6.4-7.2,10.6-13.5,8.7c-8-2.3-9.4-10.9-6.2-15.8c1.3-1.9,2.9-3.4,5-4.3c0.5-0.2,0.7-0.5,0.7-1.1c0-2.2,0-4.4,0-6.6
				c0-0.5-0.1-0.7-0.7-0.7c-10.3,0.1-20.6,0-30.9,0.3c-2,0-4,0.3-5.8,1.1c-2.5,1.1-5,2.2-6.8,4.4c-1.2,1.4-2.6,2.6-3.9,3.9
				c-19.1,19.1-38.3,38.1-57.2,57.5c-3.9,4-4.5,12.6-0.7,16.8c0.9,1,1.8,2,2.7,3c8,8.3,16.2,16.4,24.3,24.5
				c4.9,4.9,9.8,9.8,14.8,14.6c2.7,2.6,5.8,4.1,9.5,4.1c3,0,5.8-0.5,8.1-2.6c1.5-1.4,3.1-2.7,4.5-4.1c9.2-8.8,18.1-17.9,27.1-26.8
				c10-10,20-19.9,29.8-30.1c1.7-1.7,3.4-3.4,4.6-5.5c1.7-2.9,1.9-6,1.9-9.2C148.1,91.7,148.1,84.8,148.1,78z M176.9,51
				c0.1-5-0.4-9.5-1.8-14c-1.8-5.3-4.2-10.2-8.4-14.1c-6.5-6.1-15.5-6.7-22.5-0.2c-4.7,4.4-7.3,10.1-9.1,16.2
				c-0.2,0.7-0.1,0.9,0.7,1c1.6,0.2,3.3,0,4.9,0.3c4.2,0.8,7.6,3,10.3,6.2c2.4,2.9,3.9,6.3,4,10.2c0.1,5.2,0.1,10.4,0.1,15.6
				c0,3.4,0.1,6.7,0.2,10.1c0,0.8,0.3,1,1,0.9c0.7-0.1,1.4-0.3,2.1-0.4c5.8-1.4,9.8-5,12.8-9.9C175.2,66.1,177.2,58.7,176.9,51z
				 M130,61.4c-2,0-3.5,1.6-3.5,3.6c0,1.9,1.8,3.8,3.6,3.8c1.8,0,3.7-1.9,3.8-3.7C133.8,63.2,132,61.4,130,61.4z"/>
			<path d="M80,134.6c-3.2,0.1-6-0.9-8.7-2.5c-1.5-0.9-2.5-1.1-3.9,0.3c-2.1,2.1-5.2,1.1-5.8-1.7c-0.3-1.2,0.3-2.2,1-3.1
				c1.4-1.7,1.4-1.7,0.3-3.6c-1.8-3.3-2.9-6.9-2.5-10.7c0.3-2.5,1.2-4.7,2.7-6.7c1-1.3,2.4-1.6,3.9-1.1c1.2,0.4,2,1.2,2.3,2.5
				c0.1,0.7-0.1,1.3-0.3,1.9c-0.1,0.2-0.2,0.5-0.3,0.7c-2.1,3.4-1.4,6.6,0.4,9.8c2.2,3.7,5.4,6.3,9.7,7.1c2.4,0.4,4.6,0.1,6.1-2.2
				c0.9-1.4,0.7-2.8,0.5-4.3c-0.4-2.6-1.8-4.8-3.3-7c-1.9-2.9-3.8-5.8-5-9c-1.5-3.8-1.9-7.6-0.1-11.3c1.9-3.9,5.2-5.9,9.4-6.6
				c3.2-0.5,6.1,0.3,9,1.5c0.9,0.4,1.9,0.9,2.8,1.3c1.3,0.6,1.3,0.7,2.5-0.3c1.1-1,2.1-1.7,3.7-1.3c2.2,0.6,3.2,2.9,2.1,5
				c-0.4,0.7-0.9,1.2-1.4,1.8c-0.4,0.4-0.4,0.7-0.1,1.1c1.1,2.1,2.3,4.3,2.8,6.7c1,4.3,0.7,8.4-2.2,12c-0.8,0.9-1.7,1.5-3,1.4
				c-2.4-0.1-3.9-2.3-3-4.6c0.1-0.2,0.2-0.4,0.3-0.6c2.3-3.7,1.6-7.3-0.8-10.7c-1.3-1.9-3-3.5-5-4.8c-2.2-1.4-4.7-1.8-7.2-1.4
				c-2.7,0.4-4.3,3-3.8,5.9c0.4,2.2,1.4,4.2,2.6,6.1c1.6,2.6,3.4,5.2,4.7,7.9c1.4,2.9,2.5,5.8,2.5,9c0,5.2-4.4,10.4-9.5,11.2
				C82.2,134.5,81.1,134.5,80,134.6z"/>
		</g>
	</g>
</g>
<g id="Layer_6" class="st0">
	<g class="st1">
		<path class="st4" d="M154.8,141.9c-21.6,34-72.9,38.3-102.5,8.6c-20.6-20.8-25.5-52.6-12-78.6c13-25,41.9-40.3,68.2-36
			c31.2,5.1,54.3,27.2,58.4,56.9c2.1,15.3-0.2,30.1-8.2,43.7c-0.8,1.3-1,3.2-3.1,3.4C155.3,140.5,155.1,141.2,154.8,141.9z
			 M145.3,105.6c-1.6,8.3-3.9,15.3-4.3,22.7c-0.2,4.7-1.5,9.3-4.6,13.1c-3.6,4.4-8.4,6.7-14.1,5.4c-5.3-1.2-6.4-5.7-7.1-10.3
			c-0.3-2-0.9-4.1-0.8-6.1c0.2-2.9-1.1-3.9-3.6-5.4c-7.6-4.4-14.6-10.1-19.9-16.9c-7.5-9.4-6-26,2-35.3c2.8-3.2,6-3.1,8.9,0
			c1.1,1.2,1.7,2.8,2.6,4.1c1.9,2.8,3.8,2.6,4.5-0.7c1.4-7.2,6.2-10.7,12.6-12.8c2.9-0.9,5.5-2.3,4.8-6c-0.8-4.4,0.4-10.1-5.1-12.1
			c-15.7-5.9-31.2-5.1-46.5,1.5c-1.7,0.8-3.2,1.5-2.3,4c3.7,10.8,0.8,19.6-8.1,26.6c-2.8,2.2-4.7,4.6-4,8.8c0.8,4.3-2,7.3-5.9,9
			c-4.1,1.7-8.3,3.4-12.5,4.9c-1.9,0.7-3.5,1.5-3.1,3.8c0.5,3.6-0.2,7.3,1.5,10.7c0.1,0.3,1.5,0,2.2-0.2c1.7-0.5,3.5-1.2,5.2-1.9
			c9.8-3.6,14.4-0.7,14.5,9.8c0.1,5.5,2.5,8.8,7.3,10.8c2.8,1.2,5.7,2.2,8.4,3.7C87.1,142,93.2,149,92.1,160
			c-0.5,4.3,1.9,4.2,4.7,4.3c15.1,0.6,28.7-3.5,40.7-12.7c13.5-10.4,21.4-24.2,23.8-41.8C154.5,113.3,149.5,112.1,145.3,105.6z
			 M97.6,77.7c-6.8,12.4-7.4,19.2-1.8,26.9c3.6,5,9,10.2,13.7,11.7c11.6,3.7,11.2,12.1,12.1,20.8c0.4,4.4,3.3,4.6,6.7,3
			c5-2.3,6.2-7.1,6.5-11.7c0.6-8.8,3.3-17.2,4.9-25.8c0.5-2.9,1.5-5.2,4.6-5.6c2.9-0.4,4.2,1.8,5.6,3.9c1.4,2.2,2.2,6.1,6.1,4.2
			c3.4-1.6,5.7-3.9,5.1-8.6c-2.4-18.7-11.1-33.4-26.4-44.3c-0.9-0.6-1.7-1.1-2.8-0.7c1.5,12.4,1.2,13.1-10.8,18.5
			c-4,1.8-5.6,5-6.7,8.9c-1.5,5.4-6.9,7.6-11.5,5.1C100.5,82.8,99.6,80.1,97.6,77.7z M86.1,157.8c0.3-4.3-1.7-7.6-4.3-10.6
			c-4.1-4.6-9.9-6.2-15.3-8.6c-6.1-2.7-10.1-7.1-10.1-14c0.1-9.4-1.6-8.1-8.8-5.5c-0.6,0.2-1.1,0.7-1.7,0.8
			c-3.8,0.6-4.3,2.4-2.8,5.8c7.6,17.3,20.2,29.3,38.1,35.5C85.3,162.8,86.5,161.6,86.1,157.8z M39.2,94.8c4.6-1.8,8.2-3.2,11.8-4.6
			c1.5-0.6,3.7-1.2,3.3-3.1c-2.1-8.6,4.3-12.7,9.3-17.2c4.7-4.2,4.4-9.3,4-14.6c-0.2-2.8-1.4-3.6-4-1.6
			C50.1,63.9,42.2,77.3,39.2,94.8z"/>
		<path class="st5" d="M154.8,141.9c0.3-0.7,0.5-1.3,0.8-2c6.1,1.7,11.1,5.7,16.8,8.4c2.6,1.3,4-2.1,6.1-3.1c2.8-1.3,5.3-6.8,8.6-3
			c3.5,4.1-2.2,5.8-4.6,7.4c-4.6,3-5.4,6-3,10.9c1.4,2.8,5.6,7.3,0.6,9.3c-4.5,1.9-4.6-4-5.6-6.8c-1.7-4.6-3.3-4.9-6.9-1.7
			c-3.3,2.9-6.8,5.2-5.7,10.4c0.4,2.1-0.4,4.3-3.1,4.3c-2.9,0.1-3.2-2.2-2.9-4.3c0.6-4-1.1-6-4.9-6.8c-2.3-0.5-4.7-1.4-3.6-4.4
			c1.1-3,3.5-2.2,5.6-1.1c7.1,3.7,9.9-3.1,15-5.9C163.4,149.2,156.6,148.3,154.8,141.9z"/>
		<path class="st6" d="M15.1,76.6c1.4-3.6,3.3-8.6,5.4-13.7c0.7-1.8,2-3.2,4.2-2.1c1.7,0.8,2.2,2.3,1.4,4.1
			c-2.1,5-4.1,10.1-5.4,15.4C20.3,82,18.9,83,17,82.5C14.6,82,14.5,80.2,15.1,76.6z"/>
		<path class="st6" d="M83.9,186.5c-5.3-1.3-10.7-2.4-15.7-4.6c-2-0.9-3.1-2.1-2.1-4.2c0.8-1.6,2-2.3,4-1.5c4.9,1.9,10,3.4,15.2,4.3
			c2,0.4,3.5,1.6,3,3.8C87.8,186.4,86,186.9,83.9,186.5z"/>
		<path class="st6" d="M58.5,29.1c-1.3-0.3-2.3-1-2.9-2.2c-0.7-1.6,0.2-2.9,1.4-3.6c5.1-3.1,10.6-5.2,16.1-7.2
			c1.6-0.5,2.8,0.1,3.7,1.4c0.8,1.1,0.9,2.7-0.3,3.3C70.7,23.7,64.5,26.4,58.5,29.1z"/>
		<path class="st5" d="M40.9,157.1c0.3,0.2,1.2,0.7,1.9,1.3c3.8,3.1,7.5,6.2,11.3,9.2c1.4,1.2,3.2,2.2,1.9,4.4
			c-1.4,2.2-3.2,2.1-5.2,0.7c-4.5-3.1-8.8-6.5-12.7-10.4c-1.1-1.1-1.7-2.4-0.9-3.8C37.8,157.4,38.8,156.7,40.9,157.1z"/>
		<path class="st5" d="M33,51.4c-1.4,0.2-2.3-0.2-2.9-1.1c-1-1.3-0.7-2.7,0.2-3.9c3.5-4.5,7.3-8.8,11.7-12.5c1.2-1,2.6-1.4,3.9-0.4
			c1.2,0.9,2,2.5,0.9,3.7C42.6,42,38.3,46.6,34,51.2C33.7,51.4,33.2,51.4,33,51.4z"/>
		<path class="st6" d="M21.1,127.8c1.6,0.3,2.5,1.4,3.1,2.7c2.3,4.5,4.5,9.1,6.9,13.5c1,1.8,1.4,3.3-0.5,4.8
			c-2.1,1.6-3.6,0.2-4.5-1.4c-2.7-4.8-5.3-9.6-7.5-14.5C17.5,130.6,18.1,128.4,21.1,127.8z"/>
		<path class="st6" d="M107,187.9c-3.8-0.3-7.3,0.8-7.2-3.2c0.1-3.3,3.2-2.8,5.6-3.1c4.2-0.5,8.5-0.9,12.7-1.8
			c2.4-0.5,4.2-0.1,4.7,2.3c0.5,2.3-1.3,3.2-3.2,3.6C114.9,186.6,110.3,187.3,107,187.9z"/>
		<path class="st4" d="M12.4,102.4c1.1-2.2-2.6-7.7,2.6-7.9c6-0.3,2.7,5.5,3.4,8.5c0.6,3,0.5,6.1,1,9.1c0.4,2.3,0.1,4.3-2.3,4.9
			c-2.6,0.6-3.4-1.3-3.7-3.6C12.7,110,12.1,106.6,12.4,102.4z"/>
		<path class="st6" d="M136.9,179.8c-3.1-0.4-4.5-2.3-3-4.2c2.5-3.2,6.4-5,10.2-5.8c2.1-0.4,4.4,2,2.2,4.5
			C143.8,177.3,140,178.4,136.9,179.8z"/>
		<path class="st5" d="M95.7,18.4c-1.4,0-2.8,0-4.2,0c-1.6,0-2.7-0.8-3-2.4c-0.3-2,1-3.2,2.6-3.5c2.4-0.4,4.8-0.3,7.2-0.4
			c2.3-0.1,4.9,0,4.8,3.1c-0.1,2.9-2.6,3.1-5,3.1c-0.8,0-1.6,0-2.4,0C95.7,18.3,95.7,18.3,95.7,18.4z"/>
	</g>
</g>
<g id="Layer_7" class="st0">
	<g id="Layer_10" class="st1">
		<g>
			<path class="st7" d="M189.1,56.4c-2.6,4.9-5.2,9.8-7.9,14.8c-20.3-10.1-40.4-20-60.5-30c-6.8-3.4-13.6-6.6-20.2-10.1
				c-2.9-1.5-5.1-1.6-8.1-0.1C66.5,44,40.6,56.8,14.6,69.7c-1,0.5-1.9,0.9-3.2,1.6c-2.5-5-5-10-7.6-15.2c1.2-0.7,2.3-1.5,3.5-2
				c28.5-14.2,57.1-28.3,85.6-42.6c2.7-1.3,4.7-1.2,7.3,0.1c27.8,13.9,55.7,27.7,83.5,41.5c1.8,0.9,3.6,1.6,5.5,2.4
				C189.1,55.8,189.1,56.1,189.1,56.4z"/>
			<path class="st7" d="M182.7,143.3c-1.9,0-3.4,0-4.9,0c-45.1,0-90.2,0-135.3,0c-1.1,0-2.2,0.1-3.2-0.1c-4-0.5-6.3-3.1-6-6.8
				c0.4-3.9,2.8-5.7,6.5-5.7c6.8-0.1,13.6,0,20.4,0c1.7,0,3.3,0,5.5,0c0-6.1,0-11.8,0-17.4c0-5.9,2.4-8.1,8.3-7.5
				c26.2,2.6,52.5,5.3,78.7,8c6.6,0.7,13.2,1.2,19.8,2c6.8,0.8,10.1,4.6,10.2,11.3C182.8,132.3,182.7,137.5,182.7,143.3z"/>
			<path class="st7" d="M182.4,153.7c0,13.7,0,26.6,0,39.9c-4.5,0-8.9,0-13.8,0c0-8.7,0-17.3,0-26.2c-48.4,0-96.3,0-144.7,0
				c0,8.8,0,17.4,0,26.2c-4.7,0-9,0-13.6,0c-0.1-1.1-0.4-2.3-0.4-3.4c0-31,0-62.1,0-93.1c0-5.3,2-7.9,6.1-8.3
				c4.9-0.5,7.9,2.7,7.9,8.5c0,17,0,34,0,51c0,1.7,0,3.3,0,5.5C76.9,153.7,129.5,153.7,182.4,153.7z"/>
			<path class="st7" d="M58.3,111.3c-0.1,6.9-5.9,12.7-12.7,12.7c-7,0-12.9-6-12.7-13.1c0.2-6.9,6-12.6,12.9-12.5
				C52.7,98.5,58.4,104.4,58.3,111.3z"/>
		</g>
	</g>
</g>
<g id="Layer_8" class="st0">
	<g id="Layer_23" class="st1">
		<g>
			<path class="st7" d="M183.8,108.9c-0.7,2-0.6,4.2-1,6.3c-2.7,17.1-9.8,32-21.5,44.7c-12.3,13.3-27.3,22-45,25.7
				c-19.7,4.1-38.6,1.7-56.5-7.6c-18.1-9.3-31.2-23.4-39.4-42c-3.8-8.6-5.9-17.5-6.7-26.8c-1.2-15,1.2-29.5,7.7-43
				c11.3-23.4,29.5-38.7,54.5-46c5.1-1.5,10.3-2.4,15.6-2.7c0.3,0,0.6,0,0.7-0.3c4.1,0,8.2,0,12.3,0c0.1,0.4,0.5,0.3,0.8,0.3
				c3.7,0.1,7.3,0.7,10.8,1.5c17.7,3.9,32.8,12.4,45.1,25.8c11.7,12.7,18.8,27.6,21.5,44.7c0.3,2.2,0.3,4.5,1,6.6
				C183.8,100.3,183.8,104.6,183.8,108.9z M95.8,180.2c43.3,1.7,80.7-32.9,80.8-77.8c0.1-42.6-34.1-78-78-78.1
				c-42.6-0.1-77.9,34-78,77.9C20.5,145.1,54.9,178.8,95.8,180.2z"/>
			<path class="st7" d="M77.4,102.2c0-10.7,0-21.4,0-32.1c0-1.6,0.4-3,1.9-3.8c1.5-0.8,2.8-0.4,4.2,0.5
				c16.1,10.6,32.2,21.3,48.3,31.9c3.3,2.2,3.3,4.9,0.1,7c-16.1,10.7-32.3,21.3-48.4,32c-1.4,0.9-2.8,1.2-4.2,0.4
				c-1.4-0.8-1.8-2.1-1.8-3.6C77.4,123.7,77.4,113,77.4,102.2z M124.1,102.3c-13.3-8.8-26.3-17.4-39.5-26.1c0,17.5,0,34.7,0,52.2
				C97.8,119.6,110.8,111,124.1,102.3z"/>
		</g>
	</g>
</g>
<g id="Layer_9">
	<g>
		<path class="st8" d="M188.2,164.3c-1.5-1.1-3-2.2-4.5-3.4c-7.8-6.1-15.6-12.3-23.4-18.3c-8.7-6.7-17.3-13.5-25.8-20.4
			c-7.9-6.3-15.7-12.7-23.2-19.5c-1.5-1.4-1.5-1.3-0.1-2.7c7.9-7.6,16.3-14.6,24.7-21.5c5.7-4.7,11.6-9.1,17.5-13.6
			c7.4-5.7,15.1-10.8,22.9-16c2-1.4,4.1-2.7,6.1-4.2c0.2-0.2,1.1-0.3,0.5-0.9c-1-1.2-2.1-2.3-3.7-2.7c-1.8-0.4-3.5,0.3-5.2,0.6
			c-2.7,0.5-5.3,1.2-7.8,2c-5,1.5-9.9,3.1-14.7,5.1c-4.9,1.9-9.8,3.9-14.6,6.3c-6.8,3.3-13.3,7.2-19.7,11.3
			c-8.2,5.4-16.1,11.2-23.5,17.6c-1.1,1-1.6,0.7-2.4-0.2C82.7,75,74.5,66.3,66.5,57.2c-4.8-5.6-9.5-11.3-14-17.1
			c-3-3.9-6-7.7-9.1-11.6c-0.2-0.3-0.3-0.8-1-0.4c-1.6,1.1-2.8,3.9-2.4,5.7c1.5,6,3.7,11.8,6,17.5C48,55.6,50,59.9,52,64.1
			c2.7,5.5,5.7,10.8,9,15.9c3.7,5.9,7.9,11.5,12.2,17c0.5,0.6,1.5,1.2,1.3,1.9c-0.2,0.7-1.2,1.1-1.9,1.6c-6.6,5.4-13.5,10.5-20,16
			c-6,5-11.9,10-17.1,15.9c-4.8,5.5-8.7,11.5-9.3,19.1c-0.5,5.3-0.2,10.5,1,15.6c1,4.1,2.7,8,4.7,11.7c0.4,0.8,3.3,1.8,4.1,1.6
			c0.3-0.1,0.3-0.4,0.5-0.5c3.6-4,7.2-8.1,10.8-12.1c8.3-9.2,16.6-18.4,24.8-27.6c0.8-0.9,1.7-1.8,2.5-2.7l0.1-0.1l15.5-16.8l0,0
			c0.5-0.5,0.9-1,1.4-1.5c0.7-0.8,1.2-0.5,1.7,0c3.4,3.7,6.8,7.3,10.2,11c9.5,10.4,18.6,21.3,29,30.9c3,2.8,6,5.7,9.3,8.2
			c5,3.8,10.3,6.9,16.8,7.4c3.8,0.3,7.6,0.3,11.3-0.3c3.4-0.6,6.6-1.5,9.8-2.9c3-1.3,5.8-2.8,8.5-4.6
			C189.3,168.2,189.3,165.1,188.2,164.3z"/>
		<path class="st9" d="M11.2,29.7C10.2,28.4,7,27.4,5.4,28c-2.5,1-5,2-7.4,3.2c-5.6,2.8-11.1,5.8-16.5,9
			c-7.7,4.6-14.9,9.9-21.6,15.9c-10.8,9.7-20.7,20.3-30.2,31.3c-4.7,5.4-9.2,10.9-13.6,16.6c-4.8,6.1-9.4,12.3-13.8,18.7
			c-1.3,1.9-2.6,3.7-4,5.7c-1.1-1.9-2-3.7-3.1-5.4c-3.7-5.9-7.7-11.6-13.2-16c-3-2.4-6.2-4.2-9.9-4.9c-4.6-0.8-9-0.1-13.1,2.1
			c-4.4,2.3-7.8,5.4-9.1,10.4c-0.2,0.6-0.5,1.3-0.2,1.7c0.4,0.6,1-0.2,1.5-0.2c4.9-0.4,9,0.9,12.1,4.9c4.1,5.3,7.1,11.1,10.1,17
			c3.1,6.3,5.7,12.8,8.5,19.3c3.4,7.7,7.3,15.2,11.7,22.5c0.8,1.4,3.6,1.5,4.5,0.1c2.7-4.3,5.4-8.6,8-13c3.3-5.4,6.5-10.7,9.8-16.1
			c3-5,6.1-9.9,8.9-15c3.3-5.9,6.7-11.7,10.4-17.3c5.8-8.8,12-17.4,18.4-25.7c0,0,0,0,0,0c0.1-0.2,0.3-0.3,0.4-0.5
			c0.6-0.8,1.5-2,2.4-3.1c0.1-0.1,0.3-0.3,0.4-0.5c1.2-1.5,2.3-3.1,3.5-4.5c6-7.4,12.3-14.6,18.8-21.5c7.9-8.5,16-16.7,24.5-24.6
			c2.5-2.3,4.9-4.8,7.3-7.2C11.1,30.4,11.7,30.3,11.2,29.7z"/>
	</g>
</g>
<g id="Layer_3" class="st0">
	<g id="Layer_12" class="st1">
		<g>
			<path class="st7" d="M139,71.2c-0.1,10.9-3,20-8.9,28.1c-3.5,4.8-6.7,9.9-8.7,15.6c-1.4,4-2.4,8-1.4,12.3
				c0.4,1.9-0.5,3.3-2.2,3.7c-1.5,0.4-3-0.5-3.5-2.3c-1.1-3.5-0.8-7-0.1-10.5c1.5-6.9,4.8-13.1,8.8-18.9c2.9-4.3,5.9-8.4,7.7-13.3
				c6.4-17.5-0.7-37.8-16.7-47.3c-11.3-6.6-23.1-7.7-35.2-2.7C65.9,41.1,57.8,50.9,55,64.6c-2.3,11.2,0.1,21.6,6.8,31
				c3.8,5.3,7.3,10.8,9.7,16.9c1.7,4.5,2.8,9,2.2,13.9c-0.1,1-0.4,2.1-0.8,3c-0.6,1.4-2.1,1.9-3.5,1.4c-1.4-0.5-2.3-1.9-1.9-3.4
				c1.1-4,0.2-7.8-1.1-11.6c-2.2-6.5-6.1-12.1-10-17.7c-6.8-9.8-9.3-20.6-7.5-32.3c1.7-11.5,7-21,15.9-28.3
				c10.4-8.6,22.5-11.9,35.9-9.9c9.6,1.5,17.9,5.7,24.8,12.5c7,6.9,11.3,15.2,12.9,24.9C138.7,67.3,138.8,69.7,139,71.2z"/>
			<path class="st7" d="M112.6,161c0,1.1,0,2.2,0,3.3c0,1.5-0.7,2.6-2.1,3.2c-5,2.3-9.9,4.6-14.8,7c-1.4,0.7-2.7,0.7-4.1,0
				c-4.9-2.3-9.8-4.5-14.7-6.7c-1.5-0.7-2.2-1.8-2.2-3.4c0-2.5,0-5,0.1-7.4c0.1-1.4,1.1-2.5,2.3-2.7c1.3-0.2,2.6,0.4,3.2,1.6
				c0.2,0.5,0.3,1.1,0.3,1.6c0,1.3,0.1,2.7,0,4c-0.1,1.1,0.3,1.7,1.4,2.2c3.6,1.5,7.1,3.2,10.7,4.8c0.5,0.2,1.3,0.3,1.8,0.1
				c3.8-1.7,7.5-3.5,11.2-5.2c0.8-0.4,1.1-0.8,1.1-1.7c-0.1-1.4-0.1-2.9,0-4.3c0.1-1.9,1.3-3.2,2.9-3.2c1.7,0,2.8,1.2,2.9,3.2
				C112.6,158.6,112.6,159.8,112.6,161C112.6,161,112.6,161,112.6,161z"/>
			<path class="st7" d="M89.9,41.3c0.8,0.1,1.7,0,2.6,0.2c1.3,0.3,2.2,1.5,2.2,2.8c0,1.3-1,2.5-2.3,2.7c-2.2,0.4-4.5,0.4-6.7,1
				c-9.9,2.7-16,9.1-18.5,19c-0.5,1.9-0.4,3.8-0.7,5.7c-0.4,2.1-2.4,3.1-4.2,2.1c-1.1-0.6-1.6-1.6-1.6-2.8c0-5.2,1.3-10.1,3.8-14.6
				c4.6-8.1,11.5-13.3,20.7-15.4C86.7,41.7,88.3,41.6,89.9,41.3z"/>
			<path class="st7" d="M26.7,127c-1.6-0.1-2.6-0.5-3.2-1.7c-0.5-1.1-0.4-2.2,0.5-3.1c0.8-0.8,1.7-1.4,2.5-2.1
				c6.2-4.6,12.5-9.2,18.7-13.8c1.5-1.1,2.8-1.3,3.9-0.5c1.8,1.2,1.8,3.6-0.2,5.1c-2.9,2.2-5.8,4.3-8.7,6.5
				c-3.8,2.8-7.5,5.6-11.3,8.3C28.1,126.2,27.2,126.6,26.7,127z"/>
			<path class="st7" d="M46.1,43.2c-0.3-0.2-1-0.4-1.6-0.8c-6.6-4.8-13.2-9.7-19.8-14.5c-1.7-1.3-2.1-3-1-4.4c1-1.4,2.8-1.6,4.5-0.3
				c5.1,3.7,10.1,7.4,15.1,11.1c1.7,1.2,3.4,2.4,5,3.7c1,0.8,1.5,1.9,1,3.3C48.9,42.6,47.9,43.2,46.1,43.2z"/>
			<path class="st7" d="M163.1,124.3c0,2.2-2.5,3.5-4.6,2.2c-1.7-1.1-3.3-2.4-4.9-3.6c-4.9-3.6-9.8-7.3-14.8-10.9
				c-1-0.7-1.7-1.6-1.7-2.8c0.1-2.3,2.5-3.6,4.6-2.2c2,1.3,4,2.8,5.9,4.3c4.5,3.3,8.9,6.6,13.4,9.9
				C162.2,121.8,163.1,122.6,163.1,124.3z"/>
			<path class="st7" d="M23.4,71.7c3.8,0,7.6,0,11.4,0c1.6,0,2.8,1,3.1,2.4c0.3,1.2-0.3,2.6-1.5,3.1c-0.6,0.3-1.3,0.4-2,0.4
				c-7.4,0-14.7,0-22.1,0c-2.7,0-4.3-2-3.3-4.2c0.6-1.3,1.7-1.8,3.2-1.8C16,71.7,19.7,71.7,23.4,71.7z"/>
			<path class="st7" d="M163.4,25.3c-0.6,0.8-1,1.8-1.8,2.4c-6.2,4.6-12.4,9.2-18.6,13.8c-1.5,1.1-3.4,0.9-4.3-0.4
				c-1.1-1.5-0.8-3.1,0.9-4.4c5.4-4,10.8-8,16.2-12c1-0.8,2-1.6,3.2-2.2C160.9,21.6,163.1,23,163.4,25.3z"/>
			<path class="st7" d="M162.8,71.7c3.7,0,7.5,0,11.2,0c1.6,0,2.8,1,3.1,2.4c0.3,1.2-0.4,2.6-1.6,3.1c-0.6,0.3-1.3,0.4-2,0.4
				c-7.1,0-14.2,0-21.3,0c-0.4,0-0.7,0-1.1-0.1c-1.6-0.3-2.6-1.5-2.5-3c0.1-1.5,1.2-2.8,2.9-2.8c1.8-0.1,3.7,0,5.5,0
				C159,71.7,160.9,71.7,162.8,71.7C162.8,71.7,162.8,71.7,162.8,71.7z"/>
			<path class="st7" d="M120,140.4c0-4.8-3-7.8-7.8-7.8c-6.4,0-12.9,0-19.3,0c-6.6,0-13.2,0-19.7,0c-1.9,0-3.6,0.6-5.1,1.8
				c-2.2,1.9-2.4,4.4-2.5,7.1c-0.2,4.8,3.3,8.2,8.1,8.1c3.4-0.1,6.8,0,10.2,0c9.4,0,18.8,0,28.1,0c4.1,0,6.9-2.1,7.8-5.7
				C120.1,142.8,120,141.6,120,140.4z M114.1,142.2c0,0.9-0.5,1.4-1.5,1.5c-0.3,0-0.6,0-0.8,0c-12.6,0-25.3,0-37.9,0
				c-0.9,0-2,0.2-2.2-0.9c-0.1-1.3,0.1-2.6,0.4-3.8c0.1-0.3,1-0.4,1.6-0.4c6.4,0,12.8,0,19.2,0c6.3,0,12.7,0,19,0
				c1.9,0,2.2,0.3,2.2,2.3C114.1,141.2,114.1,141.7,114.1,142.2z"/>
		</g>
	</g>
</g>
</svg>
